<svg width="27" height="27" viewBox="0 0 27 27" fill="none" xmlns="http://www.w3.org/2000/svg">
<rect x="0.285461" y="0.284668" width="25.8404" height="25.8404" rx="12.9202" fill="#FFECEC"/>
<path d="M16.4944 11.7954C16.4944 11.3635 16.4094 10.9358 16.2441 10.5368C16.0788 10.1378 15.8366 9.77524 15.5312 9.46985C15.2258 9.16446 14.8632 8.92221 14.4642 8.75694C14.0652 8.59166 13.6375 8.50659 13.2056 8.50659C12.7738 8.50659 12.3461 8.59166 11.9471 8.75694C11.5481 8.92221 11.1855 9.16446 10.8801 9.46985C10.5747 9.77524 10.3325 10.1378 10.1672 10.5368C10.0019 10.9358 9.91687 11.3635 9.91687 11.7954C9.91687 12.447 10.1095 13.0531 10.436 13.5643H10.4323C11.5411 15.3003 13.2056 17.9031 13.2056 17.9031L15.979 13.5643H15.9757C16.3142 13.0364 16.4942 12.4225 16.4944 11.7954ZM13.2056 13.2048C12.8318 13.2048 12.4733 13.0564 12.209 12.792C11.9447 12.5277 11.7962 12.1692 11.7962 11.7954C11.7962 11.4216 11.9447 11.063 12.209 10.7987C12.4733 10.5344 12.8318 10.3859 13.2056 10.3859C13.5795 10.3859 13.938 10.5344 14.2023 10.7987C14.4666 11.063 14.6151 11.4216 14.6151 11.7954C14.6151 12.1692 14.4666 12.5277 14.2023 12.792C13.938 13.0564 13.5795 13.2048 13.2056 13.2048Z" fill="#F53838"/>
</svg>
