<svg width="7" height="5" viewBox="0 0 7 5" fill="none" xmlns="http://www.w3.org/2000/svg">
<path d="M3.01553 4.32975C2.95385 4.32988 2.89276 4.31783 2.83576 4.29428C2.77876 4.27074 2.72697 4.23617 2.68336 4.19257L0.690358 2.1991C0.645456 2.15579 0.609627 2.10397 0.584965 2.04667C0.560302 1.98936 0.547298 1.92772 0.546713 1.86534C0.546127 1.80296 0.557971 1.74108 0.581553 1.68333C0.605136 1.62557 0.639984 1.57309 0.684066 1.52895C0.728147 1.4848 0.780579 1.44988 0.838302 1.42622C0.896024 1.40255 0.957881 1.39062 1.02026 1.39112C1.08265 1.39162 1.14431 1.40453 1.20164 1.42911C1.25898 1.4537 1.31085 1.48945 1.35422 1.53429L3.01506 3.19513L6.0055 0.205625C6.09359 0.117467 6.2131 0.0679152 6.33773 0.0678711C6.46236 0.0678271 6.58191 0.117294 6.67006 0.20539C6.75822 0.293486 6.80778 0.412995 6.80782 0.537626C6.80786 0.662257 6.7584 0.781801 6.6703 0.869959L3.34769 4.19257C3.30408 4.23617 3.25229 4.27074 3.19529 4.29428C3.13829 4.31783 3.0772 4.32988 3.01553 4.32975Z" fill="#2FAB73"/>
</svg>
