<svg width="27" height="27" viewBox="0 0 27 27" fill="none" xmlns="http://www.w3.org/2000/svg">
<rect x="0.22821" y="0.284668" width="25.8404" height="25.8404" rx="12.9202" fill="#FFECEC"/>
<path fill-rule="evenodd" clip-rule="evenodd" d="M13.1483 12.6412C13.5969 12.6412 14.0271 12.463 14.3443 12.1458C14.6615 11.8286 14.8397 11.3984 14.8397 10.9498C14.8397 10.5012 14.6615 10.071 14.3443 9.75381C14.0271 9.43662 13.5969 9.25842 13.1483 9.25842C12.6997 9.25842 12.2695 9.43662 11.9523 9.75381C11.6351 10.071 11.4569 10.5012 11.4569 10.9498C11.4569 11.3984 11.6351 11.8286 11.9523 12.1458C12.2695 12.463 12.6997 12.6412 13.1483 12.6412ZM10.7516 17.7153C9.89565 17.7153 9.17465 16.9958 9.50219 16.205V16.205C9.70053 15.7262 9.99123 15.2911 10.3577 14.9247C10.7242 14.5582 11.1592 14.2675 11.638 14.0692C12.1169 13.8708 12.6301 13.7687 13.1483 13.7687C13.6666 13.7687 14.1798 13.8708 14.6586 14.0692C15.1374 14.2675 15.5725 14.5582 15.9389 14.9247C16.3054 15.2911 16.5961 15.7262 16.7944 16.205V16.205C17.122 16.9958 16.401 17.7153 15.5451 17.7153H10.7516Z" fill="#F53838"/>
</svg>
